<svg height="496pt" viewBox="0 -56 496 496" width="496pt" xmlns="http://www.w3.org/2000/svg"><path d="m216 144h-192c-8.824219.027344-15.972656 7.175781-16 16v128c.027344 8.824219 7.175781 15.972656 16 16h128l40 40v-40h24c8.824219-.027344 15.972656-7.175781 16-16v-128c-.027344-8.824219-7.175781-15.972656-16-16zm0 0" fill="#bddbff"/><path d="m416.160156 145.761719c9.359375 9.367187 9.359375 24.546875 0 33.917969l-40.160156 40.160156-40.160156-40.160156c-6.421875-5.984376-9.0625-14.992188-6.890625-23.496094s8.808593-15.144532 17.3125-17.316406c8.503906-2.171876 17.515625.472656 23.5 6.894531l6.238281 6.238281 6.238281-6.238281c4.496094-4.507813 10.597657-7.039063 16.960938-7.039063s12.46875 2.53125 16.960937 7.039063zm0 0" fill="#bddbff"/><path d="m440 40v32h-384v-32c0-17.671875 14.328125-32 32-32h320c17.671875 0 32 14.328125 32 32zm0 0" fill="#bddbff"/><g fill="#3d9ae2"><path d="m64 80h384v-40c-.027344-22.082031-17.917969-39.9726562-40-40h-320c-22.082031.0273438-39.972656 17.917969-40 40v80h16zm24-64h320c13.253906 0 24 10.746094 24 24v24h-368v-24c0-13.253906 10.746094-24 24-24zm0 0"/><path d="m432 344c0 13.253906-10.746094 24-24 24h-320c-13.253906 0-24-10.746094-24-24v-16h-16v16c.027344 22.082031 17.917969 39.972656 40 40h320c22.082031-.027344 39.972656-17.917969 40-40v-64h-16zm0 0"/><path d="m96 32h16v16h-16zm0 0"/><path d="m128 32h16v16h-16zm0 0"/><path d="m160 32h16v16h-16zm0 0"/><path d="m186.34375 349.65625c2.289062 2.285156 5.730469 2.972656 8.71875 1.734375s4.9375-4.15625 4.9375-7.390625v-32h16c13.253906 0 24-10.746094 24-24v-128c0-13.253906-10.746094-24-24-24h-192c-13.253906 0-24 10.746094-24 24v128c0 13.253906 10.746094 24 24 24h124.6875zm-170.34375-61.65625v-128c0-4.417969 3.582031-8 8-8h192c4.417969 0 8 3.582031 8 8v128c0 4.417969-3.582031 8-8 8h-24c-4.417969 0-8 3.582031-8 8v20.6875l-26.34375-26.34375c-1.5-1.5-3.535156-2.34375-5.65625-2.34375h-128c-4.417969 0-8-3.582031-8-8zm0 0"/><path d="m472 96h-192c-13.253906 0-24 10.746094-24 24v120c0 13.253906 10.746094 24 24 24h16v32c0 3.234375 1.949219 6.152344 4.9375 7.390625s6.429688.550781 8.71875-1.734375l37.65625-37.65625h124.6875c13.253906 0 24-10.746094 24-24v-120c0-13.253906-10.746094-24-24-24zm8 144c0 4.417969-3.582031 8-8 8h-128c-2.121094 0-4.15625.84375-5.65625 2.34375l-26.34375 26.34375v-20.6875c0-4.417969-3.582031-8-8-8h-24c-4.417969 0-8-3.582031-8-8v-120c0-4.417969 3.582031-8 8-8h192c4.417969 0 8 3.582031 8 8zm0 0"/><path d="m399.199219 130.71875c-8.488281-.015625-16.632813 3.363281-22.613281 9.386719l-.585938.582031-.585938-.589844c-5.984374-6.019531-14.125-9.394531-22.613281-9.378906-8.480469.03125-16.609375 3.402344-22.617187 9.386719-12.480469 12.492187-12.480469 32.738281 0 45.230469l40.160156 40.160156c3.125 3.121094 8.1875 3.121094 11.3125 0l40.160156-40.160156c12.480469-12.492188 12.480469-32.738282 0-45.230469-6.007812-5.984375-14.136718-9.355469-22.617187-9.386719zm11.296875 43.296875-34.496094 34.511719-34.503906-34.511719c-6.230469-6.246094-6.230469-16.355469 0-22.601563 3.003906-2.988281 7.066406-4.675781 11.304687-4.695312 4.242188-.007812 8.3125 1.683594 11.304688 4.695312l6.238281 6.242188c3.125 3.121094 8.1875 3.121094 11.3125 0l6.238281-6.242188c6.335938-6.011718 16.269531-6.011718 22.601563 0 6.230468 6.246094 6.230468 16.355469 0 22.601563zm0 0"/><path d="m48 184h32v16h-32zm0 0"/><path d="m96 184h96v16h-96zm0 0"/><path d="m48 216h144v16h-144zm0 0"/><path d="m48 248h144v16h-144zm0 0"/></g></svg>